<?xml version="1.0" encoding="UTF-8"?>
<svg xmlns="http://www.w3.org/2000/svg" xmlns:xlink="http://www.w3.org/1999/xlink" width="40px" height="40px" viewBox="0 0 40 40" version="1.1">
<g id="surface1">
<path style=" stroke:none;fill-rule:nonzero;fill:rgb(0%,0%,0%);fill-opacity:1;" d="M 21.617188 1.835938 C 14.828125 2.65625 9.382812 6.75 7.007812 12.8125 C 5.75 16.023438 5.398438 20.125 6.070312 23.859375 L 6.195312 24.5625 L 6.421875 23.664062 C 8.171875 16.765625 12.351562 11.578125 18.164062 9.09375 C 20.367188 8.15625 21.929688 7.820312 24.0625 7.8125 C 25.953125 7.8125 27.5 8.109375 29.164062 8.796875 C 30.304688 9.265625 30.703125 9.375 31.375 9.375 C 32.171875 9.375 32.609375 9.203125 33.125 8.679688 C 34.164062 7.640625 34.460938 6.40625 33.984375 5.132812 C 33.75 4.515625 33.234375 4 32.421875 3.59375 C 30.617188 2.6875 28.375 2.039062 26.210938 1.796875 C 25.25 1.6875 22.640625 1.710938 21.617188 1.835938 Z M 21.617188 1.835938 "/>
<path style=" stroke:none;fill-rule:nonzero;fill:rgb(0%,0%,0%);fill-opacity:1;" d="M 13.835938 26.726562 C 13.820312 26.828125 14.625 28.570312 15.046875 29.375 C 16.640625 32.398438 19.179688 35.164062 21.921875 36.859375 C 22.679688 37.328125 23.359375 37.679688 23.359375 37.601562 C 23.359375 37.5625 23.390625 37.578125 23.421875 37.625 C 23.515625 37.773438 24.460938 38.21875 24.585938 38.171875 C 24.65625 38.140625 24.671875 38.15625 24.640625 38.21875 C 24.53125 38.390625 27 38.117188 28.359375 37.804688 C 30.734375 37.257812 32.890625 36.351562 33.554688 35.609375 C 34.828125 34.1875 34.203125 31.726562 32.351562 30.875 C 31.992188 30.703125 31.796875 30.671875 31.25 30.671875 C 30.53125 30.671875 30.265625 30.742188 29.375 31.148438 C 27.804688 31.875 26.65625 32.117188 24.53125 32.164062 C 22.367188 32.21875 20.765625 31.976562 19.125 31.335938 C 17.117188 30.554688 15.429688 29.1875 14.328125 27.453125 C 14.15625 27.1875 13.984375 26.90625 13.929688 26.828125 C 13.882812 26.742188 13.835938 26.703125 13.835938 26.726562 Z M 13.835938 26.726562 "/>
</g>
</svg>
