<?xml version="1.0" encoding="UTF-8"?>
<svg xmlns="http://www.w3.org/2000/svg" xmlns:xlink="http://www.w3.org/1999/xlink" width="30px" height="30px" viewBox="0 0 30 30" version="1.1">
<g id="surface1">
<path style=" stroke:none;fill-rule:nonzero;fill:rgb(0%,0%,0%);fill-opacity:1;" d="M 15 1.1875 C 8.300781 1.089844 2.542969 5.925781 1.476562 12.539062 C 0.414062 19.152344 4.359375 25.550781 10.75 27.5625 C 11.375 27.6875 11.875 27 11.875 26.4375 L 11.875 24.625 C 8.125 25.4375 6.9375 22.8125 6.9375 22.8125 C 6.695312 22.023438 6.214844 21.324219 5.5625 20.8125 C 4.3125 19.9375 5.625 20 5.625 20 C 6.472656 20.066406 7.238281 20.53125 7.6875 21.25 C 8.75 23.0625 11.125 22.875 11.875 22.5625 C 11.808594 21.941406 11.917969 21.3125 12.1875 20.75 C 7.9375 20 5.625 17.5 5.625 14.125 C 5.582031 12.367188 6.230469 10.660156 7.4375 9.375 C 6.753906 8.109375 6.824219 6.570312 7.625 5.375 C 9.148438 5.40625 10.597656 6.0625 11.625 7.1875 C 12.707031 6.816406 13.855469 6.648438 15 6.6875 C 16.144531 6.652344 17.277344 6.800781 18.375 7.125 C 19.417969 6.027344 20.859375 5.394531 22.375 5.375 C 23.15625 6.570312 23.25 8.089844 22.625 9.375 C 23.808594 10.667969 24.4375 12.371094 24.375 14.125 C 24.375 17.5 22.0625 20 17.8125 20.75 C 18.082031 21.3125 18.191406 21.941406 18.125 22.5625 L 18.125 26.4375 C 18.125 26.746094 18.253906 27.042969 18.476562 27.253906 C 18.699219 27.46875 19.003906 27.582031 19.3125 27.5625 C 25.542969 25.402344 29.316406 19.070312 28.25 12.558594 C 27.1875 6.050781 21.59375 1.25 15 1.1875 Z M 15 1.1875 "/>
</g>
</svg>
