<?xml version="1.0" encoding="UTF-8"?>
<svg xmlns="http://www.w3.org/2000/svg" xmlns:xlink="http://www.w3.org/1999/xlink" width="40px" height="40px" viewBox="0 0 40 40" version="1.1">
<g id="surface1">
<path style=" stroke:none;fill-rule:nonzero;fill:rgb(0%,0%,0%);fill-opacity:1;" d="M 14.050781 8 C 14.113281 8 14.183594 8 14.246094 8 C 14.363281 8 14.488281 8 14.609375 8 C 14.730469 8 14.855469 8 14.972656 8 C 14.984375 8 14.988281 8 15 8 C 15.03125 8 15.0625 8 15.09375 8 C 15.386719 8 15.675781 8 15.972656 8 C 16.253906 8 16.535156 8 16.816406 8 C 16.839844 8 16.855469 8 16.875 8 C 16.941406 8 17.015625 8 17.089844 8 C 17.285156 8 17.488281 8 17.6875 8 C 17.699219 8 17.707031 8 17.714844 8 C 18.003906 8 18.296875 8 18.582031 8 C 18.597656 8 18.597656 8 18.613281 8 C 18.765625 8 18.917969 8 19.066406 8 C 19.671875 8 20.277344 8 20.878906 8 C 21.035156 8 21.1875 8 21.339844 8 C 21.355469 8 21.355469 8 21.371094 8 C 21.65625 8 21.949219 8 22.234375 8 C 22.25 8 22.25 8 22.265625 8 C 22.464844 8 22.660156 8 22.863281 8 C 22.933594 8 23.003906 8 23.078125 8 C 23.09375 8 23.113281 8 23.128906 8 C 23.410156 8 23.691406 8 23.980469 8 C 24.269531 8 24.5625 8 24.855469 8 C 24.886719 8 24.917969 8 24.949219 8 C 24.964844 8 24.964844 8 24.972656 8 C 25.09375 8 25.21875 8 25.339844 8 C 25.457031 8 25.578125 8 25.699219 8 C 25.761719 8 25.828125 8 25.890625 8 C 26.28125 8 26.671875 8.003906 27.0625 8.03125 C 27.082031 8.03125 27.097656 8.03125 27.113281 8.03125 C 27.511719 8.058594 27.90625 8.082031 28.296875 8.175781 C 28.300781 8.175781 28.308594 8.175781 28.3125 8.183594 C 28.796875 8.296875 29.261719 8.46875 29.6875 8.730469 C 29.691406 8.734375 29.703125 8.734375 29.707031 8.738281 C 29.796875 8.792969 29.878906 8.84375 29.957031 8.90625 C 29.964844 8.90625 29.972656 8.910156 29.980469 8.917969 C 30.0625 8.972656 30.140625 9.035156 30.21875 9.097656 C 30.238281 9.113281 30.261719 9.136719 30.277344 9.152344 C 30.316406 9.175781 30.347656 9.214844 30.386719 9.246094 C 30.402344 9.261719 30.421875 9.277344 30.4375 9.292969 C 30.46875 9.316406 30.503906 9.347656 30.535156 9.378906 C 30.542969 9.386719 30.546875 9.390625 30.550781 9.394531 C 30.5625 9.410156 30.574219 9.421875 30.589844 9.433594 C 30.605469 9.453125 30.625 9.46875 30.640625 9.488281 C 30.652344 9.5 30.660156 9.511719 30.675781 9.519531 C 30.683594 9.53125 30.683594 9.53125 30.691406 9.535156 C 30.722656 9.574219 30.761719 9.609375 30.792969 9.644531 C 30.796875 9.652344 30.796875 9.65625 30.800781 9.660156 C 30.855469 9.722656 30.90625 9.785156 30.957031 9.847656 C 30.964844 9.859375 30.972656 9.871094 30.980469 9.875 C 31.144531 10.09375 31.292969 10.328125 31.417969 10.566406 C 31.421875 10.574219 31.421875 10.582031 31.425781 10.589844 C 31.53125 10.792969 31.613281 11 31.6875 11.214844 C 31.691406 11.222656 31.691406 11.234375 31.699219 11.246094 C 31.761719 11.425781 31.800781 11.613281 31.847656 11.800781 C 31.847656 11.8125 31.855469 11.816406 31.855469 11.828125 C 32 12.457031 31.996094 13.152344 32.003906 13.792969 C 32.003906 13.800781 32.003906 13.8125 32.003906 13.824219 C 32.011719 14.035156 32.011719 14.246094 32.011719 14.453125 C 32.011719 14.5 32.011719 14.546875 32.011719 14.59375 C 32.011719 14.683594 32.011719 14.777344 32.011719 14.863281 C 32.011719 15 32.011719 15.128906 32.011719 15.265625 C 32.011719 15.285156 32.011719 15.300781 32.011719 15.316406 C 32.011719 15.378906 32.011719 15.378906 32.011719 15.4375 C 32.003906 15.566406 32.003906 15.703125 32.003906 15.832031 C 32.003906 15.855469 32.003906 15.871094 32.003906 15.890625 C 32.003906 15.941406 32.003906 15.988281 32.003906 16.042969 C 32.003906 16.128906 32.003906 16.21875 32.003906 16.300781 C 32.003906 16.980469 32.003906 17.65625 32.003906 18.328125 C 32.003906 18.339844 32.003906 18.34375 32.003906 18.355469 C 32.003906 18.714844 32.003906 19.074219 32.003906 19.433594 C 32.003906 19.582031 32.003906 19.734375 32.003906 19.886719 C 32.003906 19.90625 32.003906 19.933594 32.003906 19.957031 C 32.003906 20.347656 32.003906 20.734375 32.003906 21.125 C 32.003906 21.136719 32.003906 21.136719 32.003906 21.152344 C 32.003906 21.28125 32.003906 21.417969 32.003906 21.550781 C 32.003906 21.941406 32.003906 22.332031 32.003906 22.722656 C 32.003906 22.734375 32.003906 22.734375 32.003906 22.746094 C 32.003906 22.921875 32.003906 23.097656 32.003906 23.277344 C 32.003906 23.347656 32.003906 23.417969 32.003906 23.488281 C 32.003906 23.496094 32.003906 23.503906 32.003906 23.511719 C 32.003906 23.761719 32.003906 24.011719 32.003906 24.261719 C 32.003906 24.511719 32.003906 24.761719 32.003906 25.011719 C 32.003906 25.042969 32.003906 25.078125 32.003906 25.113281 C 32.003906 25.121094 32.003906 25.125 32.003906 25.136719 C 32 25.238281 32 25.347656 32 25.453125 C 32 25.558594 32 25.667969 32 25.769531 C 32 25.828125 32 25.886719 32 25.9375 C 32 26.3125 31.996094 26.6875 31.96875 27.0625 C 31.96875 27.082031 31.96875 27.097656 31.96875 27.113281 C 31.941406 27.511719 31.917969 27.90625 31.824219 28.296875 C 31.824219 28.300781 31.824219 28.308594 31.816406 28.3125 C 31.703125 28.796875 31.53125 29.261719 31.269531 29.6875 C 31.265625 29.691406 31.265625 29.703125 31.261719 29.707031 C 31.207031 29.796875 31.15625 29.878906 31.09375 29.957031 C 31.09375 29.964844 31.089844 29.972656 31.082031 29.980469 C 31.027344 30.0625 30.964844 30.140625 30.902344 30.21875 C 30.886719 30.238281 30.863281 30.261719 30.847656 30.277344 C 30.816406 30.316406 30.785156 30.355469 30.753906 30.386719 C 30.738281 30.40625 30.722656 30.421875 30.707031 30.4375 C 30.671875 30.480469 30.636719 30.519531 30.59375 30.558594 C 30.566406 30.582031 30.542969 30.609375 30.515625 30.636719 C 30.503906 30.652344 30.496094 30.660156 30.480469 30.671875 C 30.472656 30.675781 30.46875 30.683594 30.464844 30.6875 C 30.425781 30.722656 30.390625 30.761719 30.355469 30.792969 C 30.347656 30.796875 30.34375 30.796875 30.339844 30.800781 C 30.277344 30.855469 30.214844 30.90625 30.152344 30.957031 C 30.140625 30.964844 30.128906 30.972656 30.125 30.980469 C 29.964844 31.105469 29.785156 31.21875 29.609375 31.316406 C 29.605469 31.324219 29.59375 31.328125 29.589844 31.328125 C 29.511719 31.375 29.433594 31.417969 29.355469 31.453125 C 29.332031 31.464844 29.316406 31.472656 29.296875 31.484375 C 28.59375 31.828125 27.824219 31.933594 26.203125 32 C 26.183594 32 26.160156 32 26.140625 32 C 26.09375 32 26.046875 32 25.996094 32 C 25.925781 32 25.855469 32 25.785156 32 C 25.660156 32 25.542969 32 25.421875 32 C 25.296875 32 25.175781 32 25.050781 32 C 25.046875 32 25.035156 32 25.03125 32 C 25 32 24.96875 32 24.9375 32 C 24.605469 32 24.277344 32 23.949219 32 C 23.910156 32 23.875 32 23.84375 32 C 23.832031 32 23.824219 32 23.816406 32 C 23.621094 32 23.425781 32 23.230469 32 C 23.152344 32 23.066406 32 22.988281 32 C 22.972656 32 22.972656 32 22.964844 32 C 22.453125 32 21.941406 32 21.4375 32 C 21.417969 32 21.394531 32 21.378906 32 C 21.292969 32 21.207031 32 21.121094 32 C 21.082031 32 21.042969 32 21.003906 32 C 20.984375 32 20.96875 32 20.949219 32 C 20.34375 32 19.734375 32 19.128906 32 C 18.980469 32 18.828125 32 18.671875 32 C 18.660156 32 18.660156 32 18.644531 32 C 18.355469 32 18.0625 32 17.777344 32 C 17.761719 32 17.761719 32 17.746094 32 C 17.546875 32 17.347656 32 17.144531 32 C 17.074219 32 17.003906 32 16.933594 32 C 16.917969 32 16.894531 32 16.878906 32 C 16.59375 32 16.3125 32 16.03125 32 C 15.746094 32 15.457031 32 15.171875 32 C 15.136719 32 15.09375 32 15.050781 32 C 15.046875 32 15.042969 32 15.03125 32 C 14.910156 32 14.785156 32 14.667969 32 C 14.546875 32 14.421875 32 14.300781 32 C 14.238281 32 14.175781 32 14.109375 32 C 13.71875 32 13.328125 31.996094 12.9375 31.96875 C 12.917969 31.96875 12.902344 31.96875 12.886719 31.96875 C 12.5 31.941406 12.113281 31.921875 11.734375 31.832031 C 11.722656 31.828125 11.71875 31.828125 11.707031 31.824219 C 11.214844 31.714844 10.746094 31.53125 10.3125 31.269531 C 10.308594 31.265625 10.296875 31.265625 10.292969 31.261719 C 10.203125 31.207031 10.121094 31.15625 10.042969 31.09375 C 10.03125 31.089844 10.03125 31.089844 10.019531 31.082031 C 9.9375 31.027344 9.859375 30.964844 9.78125 30.902344 C 9.761719 30.886719 9.738281 30.863281 9.71875 30.847656 C 9.6875 30.824219 9.652344 30.792969 9.621094 30.761719 C 9.605469 30.746094 9.582031 30.730469 9.566406 30.71875 C 9.53125 30.6875 9.5 30.652344 9.46875 30.621094 C 9.449219 30.597656 9.449219 30.597656 9.425781 30.582031 C 9.410156 30.566406 9.394531 30.558594 9.386719 30.542969 C 9.359375 30.511719 9.332031 30.484375 9.308594 30.457031 C 9.269531 30.425781 9.238281 30.390625 9.207031 30.355469 C 9.203125 30.34375 9.191406 30.339844 9.1875 30.328125 C 9.140625 30.269531 9.089844 30.214844 9.042969 30.152344 C 9.035156 30.140625 9.027344 30.128906 9.019531 30.125 C 8.855469 29.90625 8.707031 29.671875 8.582031 29.433594 C 8.578125 29.425781 8.578125 29.417969 8.574219 29.410156 C 8.46875 29.207031 8.386719 29 8.3125 28.785156 C 8.308594 28.777344 8.308594 28.765625 8.300781 28.761719 C 8.046875 27.996094 8.003906 27.167969 8 26.199219 C 8 26.175781 8 26.152344 8 26.128906 C 8 26.082031 8 26.035156 8 25.988281 C 8 25.917969 8 25.847656 8 25.777344 C 8 25.65625 8 25.535156 8 25.410156 C 8 25.292969 8 25.167969 8 25.046875 C 8 25.035156 8 25.03125 8 25.019531 C 8 24.988281 8 24.957031 8 24.925781 C 8 24.597656 8 24.269531 8 23.941406 C 8 23.90625 8 23.871094 8 23.832031 C 8 23.828125 8 23.816406 8 23.808594 C 8 23.613281 8 23.417969 8 23.222656 C 8 23.144531 8 23.0625 8 22.984375 C 8 22.972656 8 22.964844 8 22.957031 C 8 22.449219 8 21.9375 8 21.433594 C 8 21.410156 8 21.390625 8 21.375 C 8 21.285156 8 21.203125 8 21.113281 C 8 21.078125 8 21.042969 8 21 C 8 20.984375 8 20.964844 8 20.941406 C 8 20.339844 8 19.734375 8 19.125 C 8 18.972656 8 18.824219 8 18.671875 C 8 18.660156 8 18.652344 8 18.640625 C 8 18.355469 8 18.0625 8 17.769531 C 8 17.765625 8 17.753906 8 17.746094 C 8 17.546875 8 17.34375 8 17.144531 C 8 17.074219 8 17 8 16.933594 C 8 16.910156 8 16.894531 8 16.875 C 8 16.59375 8 16.3125 8 16.027344 C 8 15.746094 8 15.457031 8 15.171875 C 8 15.136719 8 15.09375 8 15.050781 C 8 15.046875 8 15.035156 8 15.03125 C 8 14.90625 8 14.785156 8 14.667969 C 8 14.542969 8 14.421875 8 14.300781 C 8 14.238281 8 14.175781 8 14.109375 C 8 13.71875 8.003906 13.328125 8.03125 12.9375 C 8.03125 12.917969 8.03125 12.902344 8.03125 12.886719 C 8.058594 12.5 8.078125 12.113281 8.167969 11.734375 C 8.171875 11.722656 8.171875 11.71875 8.175781 11.707031 C 8.285156 11.214844 8.46875 10.746094 8.730469 10.3125 C 8.734375 10.308594 8.734375 10.296875 8.738281 10.292969 C 8.792969 10.203125 8.84375 10.121094 8.90625 10.042969 C 8.90625 10.035156 8.910156 10.027344 8.917969 10.019531 C 8.972656 9.9375 9.035156 9.859375 9.097656 9.78125 C 9.113281 9.761719 9.136719 9.738281 9.152344 9.722656 C 9.175781 9.683594 9.214844 9.652344 9.246094 9.613281 C 9.261719 9.597656 9.277344 9.578125 9.292969 9.5625 C 9.316406 9.53125 9.347656 9.496094 9.378906 9.464844 C 9.390625 9.457031 9.390625 9.457031 9.394531 9.449219 C 9.410156 9.4375 9.421875 9.425781 9.433594 9.410156 C 9.453125 9.394531 9.46875 9.375 9.488281 9.359375 C 9.5 9.347656 9.511719 9.339844 9.519531 9.324219 C 9.527344 9.316406 9.53125 9.3125 9.535156 9.308594 C 9.574219 9.277344 9.609375 9.238281 9.644531 9.207031 C 9.65625 9.203125 9.65625 9.203125 9.660156 9.199219 C 9.722656 9.144531 9.785156 9.09375 9.847656 9.042969 C 9.859375 9.035156 9.871094 9.027344 9.875 9.019531 C 10.09375 8.855469 10.328125 8.707031 10.566406 8.582031 C 10.574219 8.578125 10.582031 8.578125 10.589844 8.574219 C 10.792969 8.46875 11 8.386719 11.214844 8.3125 C 11.222656 8.308594 11.234375 8.308594 11.246094 8.300781 C 11.574219 8.191406 11.910156 8.113281 12.253906 8.078125 C 12.265625 8.078125 12.265625 8.078125 12.277344 8.078125 C 12.472656 8.058594 12.671875 8.042969 12.871094 8.03125 C 12.886719 8.03125 12.902344 8.03125 12.917969 8.03125 C 13 8.027344 13.078125 8.019531 13.160156 8.015625 C 13.167969 8.015625 13.171875 8.015625 13.183594 8.015625 C 13.46875 8 13.761719 8 14.050781 8 Z M 14.050781 8 "/>
<path style=" stroke:none;fill-rule:nonzero;fill:rgb(99.607843%,99.607843%,99.607843%);fill-opacity:1;" d="M 23.558594 17.484375 C 23.5625 17.484375 23.5625 17.484375 23.574219 17.484375 C 23.746094 17.484375 23.917969 17.488281 24.089844 17.511719 C 24.09375 17.511719 24.097656 17.515625 24.105469 17.515625 C 24.324219 17.546875 24.535156 17.589844 24.738281 17.65625 C 24.761719 17.667969 24.78125 17.671875 24.800781 17.675781 C 24.871094 17.699219 24.9375 17.722656 25.011719 17.75 C 25.019531 17.753906 25.03125 17.761719 25.042969 17.765625 C 25.28125 17.871094 25.503906 18 25.71875 18.152344 C 25.722656 18.15625 25.730469 18.160156 25.734375 18.160156 C 25.984375 18.339844 26.21875 18.527344 26.402344 18.765625 C 26.40625 18.769531 26.40625 18.777344 26.410156 18.78125 C 26.597656 19.03125 26.738281 19.3125 26.863281 19.59375 C 26.871094 19.605469 26.871094 19.605469 26.875 19.621094 C 27.027344 19.949219 27.128906 20.296875 27.1875 20.652344 C 27.1875 20.667969 27.1875 20.667969 27.1875 20.675781 C 27.214844 20.855469 27.21875 21.027344 27.21875 21.203125 C 27.21875 21.238281 27.21875 21.269531 27.21875 21.300781 C 27.21875 21.359375 27.21875 21.417969 27.21875 21.472656 C 27.21875 21.558594 27.21875 21.640625 27.21875 21.722656 C 27.21875 21.871094 27.21875 22.011719 27.21875 22.152344 C 27.21875 22.292969 27.21875 22.433594 27.21875 22.574219 C 27.21875 22.582031 27.21875 22.589844 27.21875 22.597656 C 27.21875 22.636719 27.21875 22.671875 27.21875 22.703125 C 27.21875 23.035156 27.21875 23.371094 27.21875 23.703125 C 27.21875 24 27.21875 24.296875 27.21875 24.589844 C 27.21875 24.609375 27.21875 24.628906 27.21875 24.644531 C 27.21875 24.65625 27.21875 24.667969 27.21875 24.675781 C 27.21875 24.722656 27.21875 24.769531 27.21875 24.816406 C 27.21875 24.828125 27.21875 24.839844 27.21875 24.84375 C 27.21875 25.09375 27.21875 25.339844 27.21875 25.589844 C 27.21875 25.59375 27.21875 25.605469 27.21875 25.613281 C 27.21875 25.652344 27.21875 25.683594 27.21875 25.71875 C 27.21875 25.84375 27.21875 25.964844 27.21875 26.089844 C 27.21875 26.246094 27.21875 26.40625 27.21875 26.5625 C 27.21875 26.644531 27.21875 26.730469 27.21875 26.8125 C 27.21875 26.871094 27.21875 26.925781 27.21875 26.984375 C 27.21875 27.015625 27.21875 27.046875 27.21875 27.078125 C 27.21875 27.109375 27.21875 27.136719 27.21875 27.167969 C 27.21875 27.183594 27.21875 27.199219 27.21875 27.214844 C 27.21875 27.21875 27.21875 27.230469 27.21875 27.238281 C 27.21875 27.246094 27.21875 27.253906 27.21875 27.261719 C 27.214844 27.28125 27.214844 27.28125 27.207031 27.285156 C 27.191406 27.285156 27.175781 27.285156 27.160156 27.285156 C 27.152344 27.285156 27.140625 27.285156 27.128906 27.285156 C 27.121094 27.285156 27.109375 27.285156 27.097656 27.285156 C 27.082031 27.285156 27.074219 27.285156 27.0625 27.285156 C 27.027344 27.285156 26.996094 27.285156 26.957031 27.285156 C 26.925781 27.285156 26.890625 27.285156 26.855469 27.285156 C 26.792969 27.285156 26.730469 27.285156 26.667969 27.285156 C 26.578125 27.285156 26.488281 27.285156 26.402344 27.285156 C 26.253906 27.285156 26.109375 27.285156 25.964844 27.285156 C 25.824219 27.285156 25.683594 27.285156 25.542969 27.285156 C 25.53125 27.285156 25.519531 27.285156 25.515625 27.285156 C 25.46875 27.285156 25.425781 27.285156 25.378906 27.285156 C 25.019531 27.285156 24.65625 27.285156 24.296875 27.285156 C 24.296875 27.28125 24.296875 27.28125 24.296875 27.277344 C 24.296875 26.78125 24.296875 26.285156 24.296875 25.792969 C 24.296875 25.78125 24.296875 25.78125 24.296875 25.765625 C 24.296875 25.609375 24.296875 25.449219 24.296875 25.285156 C 24.296875 25.207031 24.296875 25.128906 24.296875 25.050781 C 24.296875 25.042969 24.296875 25.03125 24.296875 25.027344 C 24.296875 24.769531 24.296875 24.515625 24.296875 24.265625 C 24.296875 24.003906 24.296875 23.738281 24.296875 23.480469 C 24.296875 23.441406 24.296875 23.40625 24.296875 23.371094 C 24.296875 23.359375 24.296875 23.359375 24.296875 23.347656 C 24.296875 23.230469 24.296875 23.113281 24.296875 23 C 24.296875 22.878906 24.296875 22.761719 24.296875 22.644531 C 24.296875 22.574219 24.296875 22.503906 24.296875 22.4375 C 24.296875 22.390625 24.296875 22.34375 24.296875 22.296875 C 24.296875 22.269531 24.296875 22.246094 24.296875 22.21875 C 24.296875 21.972656 24.296875 21.972656 24.277344 21.730469 C 24.277344 21.71875 24.277344 21.71875 24.277344 21.703125 C 24.253906 21.546875 24.222656 21.394531 24.167969 21.25 C 24.167969 21.238281 24.160156 21.230469 24.15625 21.222656 C 24.152344 21.199219 24.140625 21.175781 24.128906 21.152344 C 24.125 21.144531 24.125 21.144531 24.121094 21.136719 C 23.957031 20.761719 23.65625 20.480469 23.277344 20.328125 C 23.15625 20.28125 23.035156 20.246094 22.910156 20.222656 C 22.90625 20.21875 22.894531 20.21875 22.890625 20.21875 C 22.765625 20.199219 22.640625 20.1875 22.515625 20.1875 C 22.503906 20.1875 22.503906 20.1875 22.496094 20.1875 C 22.316406 20.1875 22.144531 20.207031 21.972656 20.25 C 21.96875 20.25 21.964844 20.25 21.953125 20.253906 C 21.855469 20.277344 21.761719 20.308594 21.660156 20.34375 C 21.65625 20.347656 21.652344 20.347656 21.644531 20.355469 C 21.21875 20.53125 20.90625 20.859375 20.730469 21.285156 C 20.71875 21.3125 20.714844 21.339844 20.703125 21.359375 C 20.699219 21.371094 20.699219 21.378906 20.691406 21.390625 C 20.691406 21.394531 20.6875 21.402344 20.6875 21.40625 C 20.683594 21.421875 20.675781 21.433594 20.671875 21.449219 C 20.59375 21.65625 20.550781 21.886719 20.550781 22.109375 C 20.550781 22.113281 20.550781 22.125 20.550781 22.136719 C 20.550781 22.167969 20.550781 22.199219 20.550781 22.222656 C 20.550781 22.246094 20.550781 22.269531 20.550781 22.292969 C 20.550781 22.339844 20.550781 22.386719 20.550781 22.433594 C 20.550781 22.503906 20.550781 22.574219 20.550781 22.644531 C 20.550781 22.761719 20.550781 22.878906 20.550781 23 C 20.550781 23.160156 20.550781 23.324219 20.546875 23.484375 C 20.546875 23.558594 20.546875 23.636719 20.546875 23.707031 C 20.546875 23.71875 20.546875 23.722656 20.546875 23.734375 C 20.546875 23.910156 20.546875 24.09375 20.546875 24.269531 C 20.546875 24.277344 20.546875 24.285156 20.546875 24.296875 C 20.546875 24.421875 20.546875 24.546875 20.546875 24.675781 C 20.546875 24.796875 20.546875 24.917969 20.546875 25.035156 C 20.546875 25.042969 20.546875 25.050781 20.546875 25.058594 C 20.546875 25.238281 20.546875 25.417969 20.546875 25.59375 C 20.546875 25.605469 20.546875 25.609375 20.546875 25.621094 C 20.546875 25.691406 20.546875 25.769531 20.546875 25.84375 C 20.546875 26.003906 20.546875 26.167969 20.546875 26.328125 C 20.546875 26.449219 20.546875 26.5625 20.546875 26.683594 C 20.546875 26.75 20.546875 26.824219 20.546875 26.890625 C 20.546875 26.9375 20.546875 26.984375 20.546875 27.03125 C 20.546875 27.058594 20.546875 27.082031 20.546875 27.109375 C 20.546875 27.140625 20.546875 27.167969 20.546875 27.199219 C 20.546875 27.203125 20.546875 27.214844 20.546875 27.222656 C 20.546875 27.230469 20.546875 27.238281 20.546875 27.246094 C 20.546875 27.25 20.546875 27.261719 20.546875 27.265625 C 20.542969 27.28125 20.542969 27.28125 20.535156 27.285156 C 20.519531 27.285156 20.503906 27.285156 20.488281 27.285156 C 20.480469 27.285156 20.46875 27.285156 20.457031 27.292969 C 20.449219 27.285156 20.4375 27.285156 20.425781 27.285156 C 20.410156 27.285156 20.402344 27.285156 20.390625 27.285156 C 20.355469 27.292969 20.324219 27.292969 20.292969 27.285156 C 20.253906 27.285156 20.21875 27.285156 20.183594 27.292969 C 20.113281 27.292969 20.046875 27.292969 19.972656 27.292969 C 19.917969 27.292969 19.859375 27.285156 19.808594 27.292969 C 19.796875 27.292969 19.792969 27.292969 19.78125 27.292969 C 19.765625 27.292969 19.75 27.292969 19.734375 27.292969 C 19.578125 27.292969 19.425781 27.292969 19.269531 27.285156 C 19.140625 27.285156 19.011719 27.285156 18.875 27.285156 C 18.722656 27.292969 18.574219 27.292969 18.421875 27.292969 C 18.402344 27.292969 18.386719 27.292969 18.371094 27.292969 C 18.363281 27.292969 18.355469 27.292969 18.347656 27.292969 C 18.292969 27.285156 18.234375 27.292969 18.175781 27.292969 C 18.109375 27.292969 18.042969 27.292969 17.96875 27.292969 C 17.9375 27.285156 17.902344 27.285156 17.863281 27.285156 C 17.832031 27.292969 17.800781 27.292969 17.769531 27.285156 C 17.753906 27.285156 17.746094 27.285156 17.734375 27.285156 C 17.71875 27.292969 17.703125 27.285156 17.6875 27.285156 C 17.675781 27.285156 17.667969 27.285156 17.660156 27.285156 C 17.640625 27.285156 17.640625 27.285156 17.628906 27.28125 C 17.628906 27.261719 17.628906 27.238281 17.628906 27.21875 C 17.628906 27.207031 17.628906 27.203125 17.628906 27.199219 C 17.628906 27.171875 17.628906 27.152344 17.628906 27.128906 C 17.628906 27.113281 17.628906 27.09375 17.628906 27.078125 C 17.628906 27.035156 17.628906 26.988281 17.628906 26.941406 C 17.628906 26.894531 17.628906 26.84375 17.628906 26.796875 C 17.628906 26.707031 17.628906 26.621094 17.628906 26.535156 C 17.628906 26.441406 17.628906 26.347656 17.628906 26.253906 C 17.628906 26.25 17.628906 26.246094 17.628906 26.238281 C 17.628906 26.207031 17.628906 26.175781 17.628906 26.152344 C 17.628906 25.933594 17.628906 25.714844 17.628906 25.5 C 17.628906 25.28125 17.628906 25.066406 17.628906 24.855469 C 17.628906 24.847656 17.628906 24.839844 17.628906 24.832031 C 17.628906 24.769531 17.628906 24.714844 17.628906 24.652344 C 17.628906 24.5 17.628906 24.347656 17.628906 24.199219 C 17.628906 24.191406 17.628906 24.183594 17.628906 24.175781 C 17.628906 23.84375 17.628906 23.503906 17.628906 23.171875 C 17.628906 23.050781 17.628906 22.9375 17.628906 22.824219 C 17.628906 22.8125 17.628906 22.808594 17.628906 22.800781 C 17.628906 22.464844 17.628906 22.128906 17.628906 21.792969 C 17.628906 21.769531 17.628906 21.75 17.628906 21.730469 C 17.628906 21.582031 17.628906 21.4375 17.628906 21.296875 C 17.628906 21.011719 17.628906 20.722656 17.628906 20.433594 C 17.628906 20.421875 17.628906 20.40625 17.628906 20.394531 C 17.628906 19.972656 17.628906 19.550781 17.628906 19.128906 C 17.628906 19.113281 17.628906 19.09375 17.628906 19.078125 C 17.628906 18.609375 17.628906 18.136719 17.628906 17.660156 C 18.535156 17.660156 19.441406 17.660156 20.375 17.660156 C 20.378906 18.113281 20.378906 18.566406 20.386719 19.03125 C 20.4375 18.957031 20.4375 18.957031 20.496094 18.886719 C 20.527344 18.855469 20.550781 18.816406 20.582031 18.785156 C 20.59375 18.769531 20.59375 18.769531 20.605469 18.761719 C 20.65625 18.703125 20.707031 18.652344 20.761719 18.597656 C 20.765625 18.59375 20.769531 18.589844 20.769531 18.589844 C 20.816406 18.542969 20.863281 18.496094 20.910156 18.457031 C 20.921875 18.449219 20.925781 18.441406 20.9375 18.433594 C 21.128906 18.265625 21.34375 18.125 21.566406 18 C 21.578125 17.996094 21.582031 17.988281 21.59375 17.984375 C 22.199219 17.644531 22.863281 17.484375 23.558594 17.484375 Z M 23.558594 17.484375 "/>
<path style=" stroke:none;fill-rule:nonzero;fill:rgb(99.607843%,99.607843%,99.607843%);fill-opacity:1;" d="M 13 17.660156 C 13.984375 17.660156 14.96875 17.660156 15.984375 17.660156 C 15.984375 18.785156 15.984375 18.785156 15.984375 19.09375 C 15.984375 19.113281 15.984375 19.128906 15.984375 19.152344 C 15.984375 19.566406 15.984375 19.988281 15.984375 20.410156 C 15.984375 20.425781 15.984375 20.441406 15.984375 20.453125 C 15.984375 20.746094 15.984375 21.03125 15.984375 21.316406 C 15.984375 21.464844 15.984375 21.605469 15.984375 21.75 C 15.984375 21.769531 15.984375 21.792969 15.984375 21.816406 C 15.984375 22.152344 15.984375 22.484375 15.984375 22.824219 C 15.984375 22.828125 15.984375 22.839844 15.984375 22.84375 C 15.984375 22.957031 15.984375 23.078125 15.984375 23.191406 C 15.984375 23.527344 15.984375 23.863281 15.984375 24.199219 C 15.984375 24.207031 15.984375 24.207031 15.984375 24.21875 C 15.984375 24.371094 15.984375 24.519531 15.984375 24.671875 C 15.984375 24.734375 15.984375 24.792969 15.984375 24.855469 C 15.984375 24.859375 15.984375 24.871094 15.984375 24.875 C 15.984375 25.089844 15.984375 25.300781 15.984375 25.519531 C 15.984375 25.734375 15.984375 25.949219 15.984375 26.167969 C 15.984375 26.199219 15.984375 26.222656 15.984375 26.253906 C 15.984375 26.261719 15.984375 26.265625 15.984375 26.277344 C 15.984375 26.363281 15.984375 26.457031 15.984375 26.550781 C 15.984375 26.640625 15.984375 26.734375 15.984375 26.824219 C 15.984375 26.875 15.984375 26.921875 15.984375 26.972656 C 15.984375 27.015625 15.984375 27.0625 15.984375 27.105469 C 15.984375 27.121094 15.984375 27.136719 15.984375 27.152344 C 15.984375 27.171875 15.984375 27.199219 15.984375 27.21875 C 15.984375 27.222656 15.984375 27.230469 15.984375 27.234375 C 15.984375 27.28125 15.984375 27.28125 15.972656 27.285156 C 15.957031 27.285156 15.941406 27.285156 15.925781 27.285156 C 15.917969 27.285156 15.90625 27.285156 15.894531 27.292969 C 15.886719 27.285156 15.875 27.285156 15.863281 27.285156 C 15.847656 27.285156 15.839844 27.285156 15.828125 27.285156 C 15.792969 27.292969 15.761719 27.292969 15.722656 27.285156 C 15.6875 27.285156 15.652344 27.285156 15.613281 27.292969 C 15.542969 27.292969 15.472656 27.292969 15.402344 27.292969 C 15.34375 27.292969 15.285156 27.285156 15.230469 27.292969 C 15.21875 27.292969 15.207031 27.292969 15.203125 27.292969 C 15.1875 27.292969 15.167969 27.292969 15.152344 27.292969 C 14.996094 27.292969 14.839844 27.292969 14.683594 27.285156 C 14.546875 27.285156 14.410156 27.285156 14.277344 27.285156 C 14.121094 27.292969 13.964844 27.292969 13.808594 27.292969 C 13.792969 27.292969 13.777344 27.292969 13.753906 27.292969 C 13.75 27.292969 13.738281 27.292969 13.734375 27.292969 C 13.671875 27.285156 13.613281 27.292969 13.558594 27.292969 C 13.488281 27.292969 13.417969 27.292969 13.347656 27.292969 C 13.3125 27.285156 13.277344 27.285156 13.238281 27.285156 C 13.203125 27.292969 13.171875 27.292969 13.140625 27.285156 C 13.128906 27.285156 13.113281 27.285156 13.105469 27.285156 C 13.089844 27.292969 13.074219 27.285156 13.058594 27.285156 C 13.046875 27.285156 13.035156 27.285156 13.027344 27.285156 C 13.011719 27.285156 13.011719 27.285156 13 27.28125 C 13 27.261719 13 27.238281 13 27.21875 C 13 27.207031 13 27.203125 13 27.199219 C 13 27.171875 13 27.152344 13 27.128906 C 13 27.113281 13 27.09375 13 27.078125 C 13 27.035156 13 26.988281 13 26.941406 C 13 26.894531 13 26.84375 13 26.796875 C 13 26.707031 13 26.621094 13 26.535156 C 13 26.441406 13 26.347656 13 26.253906 C 13 26.25 13 26.246094 13 26.238281 C 13 26.207031 13 26.175781 13 26.152344 C 13 25.933594 13 25.714844 13 25.5 C 13 25.28125 13 25.066406 13 24.855469 C 13 24.847656 13 24.839844 13 24.832031 C 13 24.769531 13 24.714844 13 24.652344 C 13 24.5 13 24.347656 13 24.199219 C 13 24.191406 13 24.183594 13 24.175781 C 13 23.84375 13 23.503906 13 23.171875 C 13 23.050781 13 22.9375 13 22.824219 C 13 22.8125 13 22.808594 13 22.800781 C 13 22.464844 13 22.128906 13 21.792969 C 13 21.769531 13 21.75 13 21.730469 C 13 21.582031 13 21.4375 13 21.296875 C 13 21.011719 13 20.722656 13 20.433594 C 13 20.421875 13 20.40625 13 20.394531 C 13 19.972656 13 19.550781 13 19.128906 C 13 19.113281 13 19.09375 13 19.078125 C 13 18.609375 13 18.136719 13 17.660156 Z M 13 17.660156 "/>
<path style=" stroke:none;fill-rule:nonzero;fill:rgb(99.607843%,99.607843%,99.607843%);fill-opacity:1;" d="M 14.402344 12.824219 C 14.40625 12.824219 14.410156 12.824219 14.417969 12.824219 C 14.441406 12.824219 14.464844 12.824219 14.484375 12.824219 C 14.488281 12.824219 14.5 12.824219 14.503906 12.824219 C 14.625 12.824219 14.746094 12.828125 14.863281 12.855469 C 14.871094 12.859375 14.875 12.859375 14.878906 12.859375 C 14.917969 12.871094 14.949219 12.875 14.984375 12.886719 C 15 12.890625 15 12.890625 15.015625 12.894531 C 15.433594 13.03125 15.796875 13.332031 16.003906 13.722656 C 16.019531 13.753906 16.03125 13.785156 16.046875 13.816406 C 16.050781 13.824219 16.058594 13.832031 16.0625 13.84375 C 16.121094 13.980469 16.15625 14.113281 16.183594 14.253906 C 16.1875 14.261719 16.1875 14.265625 16.1875 14.269531 C 16.21875 14.457031 16.207031 14.667969 16.175781 14.847656 C 16.171875 14.859375 16.171875 14.859375 16.171875 14.863281 C 16.09375 15.277344 15.855469 15.652344 15.519531 15.894531 C 15.515625 15.902344 15.511719 15.902344 15.503906 15.90625 C 15.144531 16.175781 14.691406 16.28125 14.25 16.222656 C 13.941406 16.175781 13.65625 16.050781 13.417969 15.855469 C 13.410156 15.855469 13.40625 15.847656 13.402344 15.84375 C 13.324219 15.777344 13.25 15.714844 13.1875 15.628906 C 13.175781 15.613281 13.160156 15.605469 13.152344 15.589844 C 12.875 15.265625 12.761719 14.8125 12.785156 14.394531 C 12.816406 14.019531 12.96875 13.667969 13.222656 13.386719 C 13.238281 13.371094 13.253906 13.347656 13.269531 13.328125 C 13.300781 13.296875 13.332031 13.269531 13.371094 13.238281 C 13.375 13.234375 13.378906 13.230469 13.390625 13.222656 C 13.660156 12.984375 14.035156 12.828125 14.402344 12.824219 Z M 14.402344 12.824219 "/>
</g>
</svg>
