<?xml version="1.0" encoding="UTF-8"?>
<svg xmlns="http://www.w3.org/2000/svg" xmlns:xlink="http://www.w3.org/1999/xlink" width="30px" height="30px" viewBox="0 0 30 30" version="1.1">
<g id="surface1">
<path style=" stroke:none;fill-rule:nonzero;fill:rgb(0%,0%,0%);fill-opacity:1;" d="M 0.394531 1.28125 C 0.199219 1.972656 0.0976562 8.585938 0.199219 15.886719 L 0.492188 29.113281 L 29.113281 29.113281 L 29.113281 0.492188 L 15 0.199219 C 4.046875 0 0.789062 0.199219 0.394531 1.28125 Z M 8.683594 6.710938 C 8.980469 8.289062 8.488281 8.882812 7.007812 8.882812 C 4.636719 8.882812 3.550781 7.402344 4.34375 5.328125 C 5.230469 3.058594 8.289062 4.046875 8.683594 6.710938 Z M 8.683594 18.453125 C 8.386719 24.277344 8.09375 25.164062 6.511719 25.164062 C 4.933594 25.164062 4.738281 24.375 4.738281 18.949219 C 4.835938 15.59375 4.835938 12.632812 4.835938 12.335938 C 4.933594 12.039062 5.824219 11.84375 6.90625 11.84375 C 8.78125 11.84375 8.980469 12.335938 8.683594 18.453125 Z M 23.585938 13.125 C 24.078125 13.816406 24.671875 16.777344 24.769531 19.738281 C 25.066406 24.574219 24.867188 25.164062 23.191406 25.164062 C 21.511719 25.164062 21.117188 24.277344 20.722656 20.328125 C 20.425781 17.664062 19.738281 15.296875 19.046875 15.097656 C 17.367188 14.507812 15.59375 18.453125 15.988281 22.007812 C 16.183594 24.574219 15.886719 25.164062 14.308594 25.164062 C 12.53125 25.164062 12.335938 24.375 12.039062 18.652344 L 11.742188 12.136719 L 17.171875 12.039062 C 20.132812 12.039062 22.992188 12.53125 23.585938 13.125 Z M 23.585938 13.125 "/>
</g>
</svg>
